<svg xmlns="http://www.w3.org/2000/svg" width="515" height="315" class="svg-logo" style="height:auto" viewBox="0 0 630 430">
  <g data-element="wrapper">
    <path fill="rgba(255, 255, 255, 0.65)" d="M430.406 134.247c0 69.05-55.978 125.028-125.028 125.028-20.196 0-39.26-4.806-56.14-13.313-2.233 3.638-4.559 7.503-5.496 12.313 4.498 6.183 1.547 10.4 1.547 10.4s-8.996 2.248-26.142 6.606c-2.389-6.607 2.811-9.276 5.482-9.979 2.67-.703 4.638-1.123 8.714-5.621.09-.903 2.27-9.702 5.083-19.86a125.79 125.79 0 0 1-38.832-38.957c11.738 11.644 26.535 20.204 43.08 24.377.263-.852.526-1.7.788-2.522 5.145-3.468 22.471-7.376 29.338-8.83-.483-.898-.97-1.685-1.452-2.273 4.157-1.545 7.67-2.67 7.67-2.67 0-5.622 1.826-7.167 6.212-8.855 4.387-1.685 7.42-4.917 7.42-13.07-6.747 4.499-19.254 3.795-19.254 3.795s-.22-.712-.513-1.783c-3.701-.525-12.484-1.758-16.518-2.242-8.391 2.072-10.154 1.762-10.154 1.762s-4.452-1.349-6.732-4.87l2.869-.117-25.456-39.667h27.456l24.76 38.585 2.371-.098c-.14-1.143-.184-2.188-.05-2.952 4.075.14 14.195-5.623 15.318-7.309.83-1.243 4.885-4.712 8.63-6.945-3.386-4.52-8.214-1.603-9.658-1.314-6.299 1.26-7.337-1.557-7.114-3.26.22-1.706-2.075-2.002-2.075-2.002s-.37-.889 0-2.223c-1.334-.296-2.297-1.482-2.077-1.778.223-.297.966-.963 0-2.222-4.297-.445-5.037-3.114-2.9-4.225 2.14-1.11.966-4.129-.115-7.047-1.08-2.918-.324-6.27.757-7.676-3.372.646-4.928 2.349-4.928 2.349s-2.815-2.519-.52-7.262c-4-4.001 4.002-12.74 11.708-15.702 4.001-7.485 18.007-2.97 19.488 1.326 11.561-3.259 15.562 5.04 14.155 7.633 1.111 3.113 3.258 11.855 2.074 16.227-1.186 4.372-3.113 10.45-8.521 15.266-3.204 2.852-3.389 7.124-3.01 10.142h4.062s2.39 1.687 1.548 4.777c3.48 2.88 16.882 19.288 14.258 40.729 22.493-17.144 37.02-44.204 37.02-74.67 0-51.828-42.017-93.844-93.846-93.844-25.78 0-49.128 10.4-66.089 27.228C221.737 32.543 260.821 9.22 305.378 9.22c69.05 0 125.028 55.976 125.028 125.028z" data-element="icon"/>
    <text fill="rgba(255, 255, 255, 0.65)" data-element="company-name" dx="0 4.75 4.75 4.75 4.75" font-family="ABeeZee" font-size="75.938" transform="matrix(2 0 0 2 83.93 385.781)">НГАЭК</text>
  </g>
</svg>
